<svg id="visual" viewBox="0 0 900 600" width="900" height="600" xmlns="http://www.w3.org/2000/svg" xmlns:xlink="http://www.w3.org/1999/xlink" version="1.1"><rect x="0" y="0" width="900" height="600" fill="#000000"></rect><path d="M0 399L18.8 407.8C37.7 416.7 75.3 434.3 112.8 443.7C150.3 453 187.7 454 225.2 453.3C262.7 452.7 300.3 450.3 337.8 445.7C375.3 441 412.7 434 450.2 428.2C487.7 422.3 525.3 417.7 562.8 416.3C600.3 415 637.7 417 675.2 417.8C712.7 418.7 750.3 418.3 787.8 426.7C825.3 435 862.7 452 881.3 460.5L900 469L900 601L881.3 601C862.7 601 825.3 601 787.8 601C750.3 601 712.7 601 675.2 601C637.7 601 600.3 601 562.8 601C525.3 601 487.7 601 450.2 601C412.7 601 375.3 601 337.8 601C300.3 601 262.7 601 225.2 601C187.7 601 150.3 601 112.8 601C75.3 601 37.7 601 18.8 601L0 601Z" fill="#4f6194"></path><path d="M0 437L18.8 434.8C37.7 432.7 75.3 428.3 112.8 428.3C150.3 428.3 187.7 432.7 225.2 438C262.7 443.3 300.3 449.7 337.8 456C375.3 462.3 412.7 468.7 450.2 467.8C487.7 467 525.3 459 562.8 453.2C600.3 447.3 637.7 443.7 675.2 442.5C712.7 441.3 750.3 442.7 787.8 441.3C825.3 440 862.7 436 881.3 434L900 432L900 601L881.3 601C862.7 601 825.3 601 787.8 601C750.3 601 712.7 601 675.2 601C637.7 601 600.3 601 562.8 601C525.3 601 487.7 601 450.2 601C412.7 601 375.3 601 337.8 601C300.3 601 262.7 601 225.2 601C187.7 601 150.3 601 112.8 601C75.3 601 37.7 601 18.8 601L0 601Z" fill="#465785"></path><path d="M0 456L18.8 463.5C37.7 471 75.3 486 112.8 485.7C150.3 485.3 187.7 469.7 225.2 469.7C262.7 469.7 300.3 485.3 337.8 493.7C375.3 502 412.7 503 450.2 504.2C487.7 505.3 525.3 506.7 562.8 503.7C600.3 500.7 637.7 493.3 675.2 485C712.7 476.7 750.3 467.3 787.8 467.5C825.3 467.7 862.7 477.3 881.3 482.2L900 487L900 601L881.3 601C862.7 601 825.3 601 787.8 601C750.3 601 712.7 601 675.2 601C637.7 601 600.3 601 562.8 601C525.3 601 487.7 601 450.2 601C412.7 601 375.3 601 337.8 601C300.3 601 262.7 601 225.2 601C187.7 601 150.3 601 112.8 601C75.3 601 37.7 601 18.8 601L0 601Z" fill="#3e4d76"></path><path d="M0 486L18.8 489.5C37.7 493 75.3 500 112.8 505.7C150.3 511.3 187.7 515.7 225.2 512.5C262.7 509.3 300.3 498.7 337.8 498.8C375.3 499 412.7 510 450.2 516C487.7 522 525.3 523 562.8 518.2C600.3 513.3 637.7 502.7 675.2 502.5C712.7 502.3 750.3 512.7 787.8 511.5C825.3 510.3 862.7 497.7 881.3 491.3L900 485L900 601L881.3 601C862.7 601 825.3 601 787.8 601C750.3 601 712.7 601 675.2 601C637.7 601 600.3 601 562.8 601C525.3 601 487.7 601 450.2 601C412.7 601 375.3 601 337.8 601C300.3 601 262.7 601 225.2 601C187.7 601 150.3 601 112.8 601C75.3 601 37.7 601 18.8 601L0 601Z" fill="#364368"></path><path d="M0 505L18.8 511.5C37.7 518 75.3 531 112.8 530.8C150.3 530.7 187.7 517.3 225.2 514.3C262.7 511.3 300.3 518.7 337.8 520C375.3 521.3 412.7 516.7 450.2 515.3C487.7 514 525.3 516 562.8 520.7C600.3 525.3 637.7 532.7 675.2 531C712.7 529.3 750.3 518.7 787.8 518.8C825.3 519 862.7 530 881.3 535.5L900 541L900 601L881.3 601C862.7 601 825.3 601 787.8 601C750.3 601 712.7 601 675.2 601C637.7 601 600.3 601 562.8 601C525.3 601 487.7 601 450.2 601C412.7 601 375.3 601 337.8 601C300.3 601 262.7 601 225.2 601C187.7 601 150.3 601 112.8 601C75.3 601 37.7 601 18.8 601L0 601Z" fill="#2e395a"></path><path d="M0 544L18.8 544.8C37.7 545.7 75.3 547.3 112.8 544.8C150.3 542.3 187.7 535.7 225.2 537.8C262.7 540 300.3 551 337.8 554C375.3 557 412.7 552 450.2 551.8C487.7 551.7 525.3 556.3 562.8 553.8C600.3 551.3 637.7 541.7 675.2 541C712.7 540.3 750.3 548.7 787.8 553.2C825.3 557.7 862.7 558.3 881.3 558.7L900 559L900 601L881.3 601C862.7 601 825.3 601 787.8 601C750.3 601 712.7 601 675.2 601C637.7 601 600.3 601 562.8 601C525.3 601 487.7 601 450.2 601C412.7 601 375.3 601 337.8 601C300.3 601 262.7 601 225.2 601C187.7 601 150.3 601 112.8 601C75.3 601 37.7 601 18.8 601L0 601Z" fill="#27304d"></path><path d="M0 569L18.8 569C37.7 569 75.3 569 112.8 567.2C150.3 565.3 187.7 561.7 225.2 563.5C262.7 565.3 300.3 572.7 337.8 573C375.3 573.3 412.7 566.7 450.2 563.2C487.7 559.7 525.3 559.3 562.8 559.5C600.3 559.7 637.7 560.3 675.2 561C712.7 561.7 750.3 562.3 787.8 563.3C825.3 564.3 862.7 565.7 881.3 566.3L900 567L900 601L881.3 601C862.7 601 825.3 601 787.8 601C750.3 601 712.7 601 675.2 601C637.7 601 600.3 601 562.8 601C525.3 601 487.7 601 450.2 601C412.7 601 375.3 601 337.8 601C300.3 601 262.7 601 225.2 601C187.7 601 150.3 601 112.8 601C75.3 601 37.7 601 18.8 601L0 601Z" fill="#1f2740"></path></svg>